<?xml version="1.0"?><svg xmlns="http://www.w3.org/2000/svg" width="74.9" height="74.9">
<circle cy="37.45" cx="36.972" r="28.563" fill="#FF6319"/>
<path d="m25.958 23.09h13.96c7.04 0 8.84 4.4 8.84 7.36 0 4.12-2.32 5.28-3.52 5.88 3.52 1.32 4.439 4.12 4.439 6.96 0 2.279-0.96 4.439-2.479 5.92-1.641 1.6-3.2 2.6-9.08 2.6h-12.16v-28.72zm5.76 11.24h7.04c2.36 0 4.24-0.92 4.24-3.2 0-2.36-1.68-3.08-4.4-3.08h-6.88v6.28zm0 12.52h7.36c2.92 0 4.6-1.28 4.6-4.2 0-2.52-2.16-3.479-4.319-3.479h-7.641v7.679z" fill="#fff"/>
</svg>
