<?xml version="1.0" encoding="UTF-8"?><svg xmlns="http://www.w3.org/2000/svg" width="74.9" height="74.9">
<circle cy="37.45" cx="36.972" r="28.563" fill="#FCCC0A"/>
<path d="m48.118 53.292-3.4-3.24c-2.72 1.601-5.68 1.92-7.36 1.92-3.8 0-13.8-1.64-13.8-15.12s10-15.12 13.8-15.12 13.8 1.64 13.8 15.12c0 4.72-1.24 8-3 10.24l3.119 2.96-3.159 3.24zm-7.32-13.12 3.04 2.84c0.8-1.479 1.32-3.479 1.32-6.16 0-8.04-4.561-10.04-7.8-10.04-3.24 0-7.8 2-7.8 10.04s4.56 10.04 7.8 10.04c1 0 2.16-0.199 3.24-0.76l-2.88-2.72 3.08-3.24z"/>
</svg>
