<?xml version="1.0" encoding="UTF-8"?><svg xmlns="http://www.w3.org/2000/svg" width="74.9" height="74.9">
<circle cy="37.45" cx="36.972" r="28.563" fill="#808183"/>
<path d="m31.41 42.972c0.04 1.6 0.84 4.64 6.08 4.64 2.84 0 6-0.68 6-3.72 0-2.24-2.16-2.84-5.2-3.561l-3.08-0.72c-4.64-1.08-9.12-2.12-9.12-8.44 0-3.2 1.72-8.84 11.04-8.84 8.8 0 11.16 5.76 11.2 9.28h-5.76c-0.16-1.28-0.64-4.32-5.88-4.32-2.28 0-5 0.84-5 3.44 0 2.24 1.84 2.72 3.04 3l7 1.72c3.92 0.96 7.52 2.56 7.52 7.72 0 8.64-8.8 9.399-11.32 9.399-10.48 0-12.28-6.04-12.28-9.6h5.76v0.002z" fill="#fff"/>
</svg>
