<?xml version="1.0" encoding="utf-8"?>
<!-- Generator: Adobe Illustrator 15.0.2, SVG Export Plug-In . SVG Version: 6.00 Build 0)  -->
<!DOCTYPE svg PUBLIC "-//W3C//DTD SVG 1.1//EN" "http://www.w3.org/Graphics/SVG/1.1/DTD/svg11.dtd">
<svg version="1.1" id="Layer_1" xmlns="http://www.w3.org/2000/svg" xmlns:xlink="http://www.w3.org/1999/xlink" x="0px" y="0px"
	 width="200px" height="34.932px" viewBox="0 0 200 34.932" enable-background="new 0 0 200 34.932" xml:space="preserve">
<path fill="#0060A9" d="M25.761,23.171l-1.632,0.271l-0.202-1.425l-1.563,0.201l-0.203,1.563l-2.105,0.375l2.07-12.222l1.972,0.34
	L25.761,23.171z M31.563,17.572c0-9.369-7.603-16.974-16.97-16.974C8.72,0.598,3.527,3.584,0.47,8.136l4.718,0.813l1.29,9.842h0.105
	l1.425-9.334l4.683,0.814v15.172L9.74,25.952v-6.517c0-2.817,0.031-3.291,0.031-3.291H9.637L7.872,26.292l-2.951,0.51L2.748,15.871
	H2.644c0,0,0.137,0.377,0.137,3.837v7.469l-1.933,0.34c3.086,4.272,8.077,7.022,13.745,7.022
	C23.96,34.54,31.563,26.937,31.563,17.572 M20.531,14.853l-1.832-0.17v9.711l-2.75,0.474V14.446l-2.341-0.2v-3.834l6.922,1.218
	v3.224H20.531z M23.654,19.641l-0.442-3.732h-0.1l-0.441,3.8L23.654,19.641z"/>
<path fill="#0060A9" d="M40.978,19.579c0.016,0.639,0.336,1.856,2.433,1.856c1.136,0,2.4-0.273,2.4-1.486
	c0-0.899-0.864-1.139-2.082-1.426l-1.231-0.289c-1.856-0.432-3.647-0.849-3.647-3.375c0-1.279,0.688-3.538,4.415-3.538
	c3.522,0,4.464,2.305,4.479,3.714h-2.302c-0.064-0.513-0.256-1.729-2.355-1.729c-0.909,0-1.998,0.336-1.998,1.378
	c0,0.897,0.735,1.088,1.216,1.198l2.801,0.688c1.565,0.388,3.008,1.026,3.008,3.089c0,3.459-3.522,3.764-4.53,3.764
	c-4.192,0-4.91-2.417-4.91-3.842L40.978,19.579L40.978,19.579z"/>
<path fill="#0060A9" d="M52.217,14.601h1.392v1.604h-1.392v4.622c0,0.497,0.016,0.688,0.926,0.688c0.145,0,0.305-0.016,0.465-0.029
	v1.694c-0.352,0.018-0.706,0.033-1.057,0.033h-0.29c-1.935,0-2.287-0.735-2.287-1.839v-5.169h-1.151v-1.604h1.151v-2.302h2.242
	L52.217,14.601L52.217,14.601z"/>
<path fill="#0060A9" d="M61.87,21.451c0,1.006,0.223,1.23,0.497,1.326v0.337h-2.418c-0.129-0.4-0.16-0.526-0.209-1.009
	c-0.512,0.527-1.231,1.235-2.752,1.235c-1.278,0-2.591-0.723-2.591-2.482c0-1.665,1.057-2.511,2.48-2.719l2.015-0.305
	c0.352-0.049,0.786-0.191,0.786-0.672c0-0.946-0.895-0.991-1.472-0.991c-1.122,0-1.313,0.686-1.378,1.182h-2.16
	c0.256-2.606,2.064-2.977,3.807-2.977c1.202,0,3.395,0.37,3.395,2.465V21.451z M59.677,18.969c-0.225,0.178-0.592,0.32-1.521,0.465
	c-0.833,0.146-1.521,0.353-1.521,1.28c0,0.786,0.608,1.026,1.04,1.026c0.993,0,2.001-0.644,2.001-1.682L59.677,18.969L59.677,18.969
	z"/>
<path fill="#0060A9" d="M66.322,14.601h1.394v1.604h-1.394v4.622c0,0.497,0.016,0.688,0.928,0.688c0.143,0,0.305-0.016,0.465-0.029
	v1.694c-0.354,0.018-0.706,0.033-1.058,0.033H66.37c-1.939,0-2.289-0.735-2.289-1.839v-5.169h-1.153v-1.604h1.153v-2.302h2.24
	L66.322,14.601L66.322,14.601z"/>
<path fill="#0060A9" d="M76.391,20.621c-0.592,2.046-2.291,2.718-3.745,2.718c-2.402,0-4.241-1.151-4.241-4.655
	c0-1.025,0.352-4.304,4.079-4.304c1.681,0,4.001,0.797,4.001,4.687v0.4h-5.84c0.064,0.641,0.191,2.082,2.001,2.082
	c0.624,0,1.263-0.322,1.438-0.928H76.391z M74.181,18.009c-0.127-1.376-1.008-1.792-1.726-1.792c-1.057,0-1.618,0.672-1.745,1.792
	H74.181z"/>
<path fill="#0060A9" d="M85.612,23.115h-2.24v-5.17c0-0.624-0.033-1.679-1.458-1.679c-0.991,0-1.759,0.672-1.759,1.97v4.879h-2.242
	v-8.514h2.146v1.249h0.031c0.305-0.512,0.944-1.47,2.561-1.47c1.665,0,2.961,0.974,2.961,2.848V23.115z"/>
<rect x="92.003" y="11.626" fill="#0060A9" width="2.402" height="11.49"/>
<path fill="#0060A9" d="M101.225,17.194c-0.099-0.543-0.289-1.119-1.504-1.119c-1.216,0-1.376,0.465-1.376,0.83
	c0,1.346,5.328,0.369,5.328,3.507c0,2.479-2.4,2.928-3.729,2.928c-1.935,0-4.03-0.672-4.097-2.943h2.306
	c0,0.722,0.448,1.249,1.857,1.249c1.151,0,1.423-0.563,1.423-0.883c0-1.423-5.281-0.35-5.281-3.534c0-1.249,0.786-2.848,3.439-2.848
	c1.665,0,3.651,0.417,3.827,2.813H101.225z"/>
<rect x="105.309" y="11.626" fill="#0060A9" width="2.239" height="11.49"/>
<path fill="#0060A9" d="M116.525,21.451c0,1.006,0.229,1.23,0.498,1.326v0.337h-2.416c-0.129-0.4-0.16-0.526-0.207-1.009
	c-0.512,0.527-1.231,1.235-2.752,1.235c-1.282,0-2.597-0.723-2.597-2.482c0-1.665,1.06-2.511,2.482-2.719l2.016-0.305
	c0.354-0.049,0.783-0.191,0.783-0.672c0-0.946-0.896-0.991-1.47-0.991c-1.122,0-1.315,0.686-1.377,1.182h-2.16
	c0.258-2.606,2.063-2.977,3.805-2.977c1.202,0,3.395,0.37,3.395,2.465V21.451z M114.334,18.969c-0.223,0.178-0.59,0.32-1.521,0.465
	c-0.828,0.146-1.517,0.353-1.517,1.28c0,0.786,0.604,1.026,1.04,1.026c0.988,0,1.997-0.644,1.997-1.682L114.334,18.969
	L114.334,18.969z"/>
<path fill="#0060A9" d="M126.166,23.115h-2.24v-5.17c0-0.624-0.031-1.679-1.458-1.679c-0.993,0-1.759,0.672-1.759,1.97v4.879h-2.241
	v-8.514h2.144v1.249h0.035c0.302-0.512,0.942-1.47,2.562-1.47c1.661,0,2.959,0.974,2.959,2.848L126.166,23.115L126.166,23.115z"/>
<path fill="#0060A9" d="M135.965,23.116h-2.191v-1.075h-0.031c-0.543,0.963-1.536,1.299-2.467,1.299
	c-2.524,0-3.584-2.242-3.584-4.577c0-2.945,1.664-4.386,3.535-4.386c1.443,0,2.116,0.786,2.469,1.327h0.031v-4.081h2.238V23.116z
	 M131.838,21.498c1.424,0,1.98-1.186,1.98-2.449c0-1.358-0.383-2.736-1.92-2.736c-1.424,0-1.902,1.266-1.902,2.611
	C129.996,19.933,130.395,21.498,131.838,21.498"/>
<path fill="#0060A9" d="M142.471,11.626h5.809c3.057,0,3.615,2.257,3.615,3.248c0,1.265-0.642,2.351-1.774,2.735
	c0.942,0.416,1.454,0.771,1.454,2.914c0,1.68,0,2.096,0.512,2.285v0.308h-2.654c-0.16-0.546-0.258-1.138-0.258-2.32
	c0-1.569-0.094-2.177-1.872-2.177h-2.479v4.497h-2.352V11.626L142.471,11.626z M147.637,16.684c1.247,0,1.855-0.434,1.855-1.568
	c0-0.609-0.271-1.504-1.68-1.504h-2.992v3.072H147.637z"/>
<path fill="#0060A9" d="M160.686,21.451c0,1.006,0.223,1.23,0.496,1.326v0.337h-2.42c-0.125-0.4-0.156-0.526-0.207-1.009
	c-0.513,0.527-1.23,1.235-2.752,1.235c-1.277,0-2.592-0.723-2.592-2.482c0-1.665,1.057-2.511,2.479-2.719l2.018-0.305
	c0.352-0.049,0.786-0.191,0.786-0.672c0-0.946-0.896-0.991-1.474-0.991c-1.119,0-1.311,0.686-1.377,1.182h-2.158
	c0.254-2.606,2.064-2.977,3.809-2.977c1.2,0,3.393,0.37,3.393,2.465V21.451L160.686,21.451z M158.492,18.969
	c-0.225,0.178-0.596,0.32-1.521,0.465c-0.832,0.146-1.521,0.353-1.521,1.28c0,0.786,0.61,1.026,1.04,1.026
	c0.992,0,2.002-0.644,2.002-1.682V18.969z"/>
<path fill="#0060A9" d="M164.93,13.592h-2.24v-2.077h2.24V13.592z M164.93,23.116h-2.24v-8.514h2.24V23.116z"/>
<rect x="167.075" y="11.626" fill="#0060A9" width="2.239" height="11.49"/>
<polygon fill="#0060A9" points="179.979,23.115 177.672,23.115 176.348,16.905 176.314,16.905 174.986,23.115 172.682,23.115 
	170.279,14.601 172.665,14.601 173.994,20.716 174.025,20.716 175.227,14.601 177.48,14.601 178.764,20.716 178.794,20.716 
	180.123,14.601 182.425,14.601 "/>
<path fill="#0060A9" d="M190.45,21.451c0,1.006,0.223,1.23,0.495,1.326v0.337h-2.418c-0.127-0.4-0.157-0.526-0.209-1.009
	c-0.512,0.527-1.229,1.235-2.75,1.235c-1.278,0-2.592-0.723-2.592-2.482c0-1.665,1.056-2.511,2.479-2.719l2.018-0.305
	c0.352-0.049,0.784-0.191,0.784-0.672c0-0.946-0.896-0.991-1.474-0.991c-1.117,0-1.309,0.686-1.376,1.182h-2.157
	c0.254-2.606,2.063-2.977,3.809-2.977c1.198,0,3.393,0.37,3.393,2.465L190.45,21.451L190.45,21.451z M188.257,18.969
	c-0.223,0.178-0.594,0.32-1.521,0.465c-0.832,0.146-1.521,0.353-1.521,1.28c0,0.786,0.61,1.026,1.04,1.026
	c0.993,0,2.001-0.644,2.001-1.682L188.257,18.969L188.257,18.969z"/>
<path fill="#0060A9" d="M196.73,22.972c-1.06,3.15-1.344,3.567-3.299,3.567c-0.301,0-0.688-0.017-1.009-0.029v-1.794
	c0.099,0.018,0.242,0.033,0.435,0.033c0.816,0,1.263-0.111,1.474-1.282l-3.14-8.865h2.498l1.822,6.273h0.034l1.743-6.273h2.369
	L196.73,22.972z"/>
</svg>
